<?xml version="1.0" encoding="UTF-8" standalone="no"?><svg xmlns="http://www.w3.org/2000/svg" fill="none" height="44" viewBox="0 0 198 44" width="198">
<path d="M115.319 33.2603C118.818 33.2485 122.157 31.7361 124.245 28.8842C125.69 26.911 126.368 24.4209 126.368 21.9958C126.368 19.5707 125.69 17.0821 124.245 15.1075C122.157 12.257 118.816 10.7447 115.319 10.7328C111.817 10.7447 108.485 12.257 106.391 15.1075C104.949 17.0821 104.265 19.5722 104.265 21.9958C104.265 24.4195 104.949 26.911 106.391 28.8842C108.485 31.7361 111.818 33.247 115.319 33.2603ZM109.925 19.4097C110.733 16.9891 112.656 15.0543 115.319 15.041C117.979 15.0543 119.903 16.9876 120.717 19.4097C120.972 20.1807 121.145 21.12 121.145 21.9973C121.145 22.8746 120.972 23.8139 120.717 24.5849C119.903 27.0055 117.979 28.9403 115.319 28.9536C112.656 28.9388 110.733 27.0055 109.925 24.5849C109.668 23.8139 109.497 22.8702 109.497 21.9973C109.497 21.1244 109.669 20.1807 109.925 19.4097Z" fill="#FF5A00"/>
<path d="M35.0836 33.343H38.7922C39.1437 33.343 39.4346 33.0521 39.4346 32.7006V2.21991C39.4331 1.86693 39.1437 1.57745 38.7922 1.57745H35.0836C34.7262 1.57745 34.4426 1.86693 34.4426 2.21991V32.702C34.4426 33.0536 34.7262 33.3445 35.0836 33.3445" fill="#FF5A00"/>
<path d="M26.3713 33.343H30.0828C30.4313 33.343 30.7208 33.0521 30.7208 32.7006V2.21991C30.7208 1.86693 30.4298 1.57745 30.0813 1.57745H26.3698C26.0168 1.57745 25.7318 1.86693 25.7318 2.21991V32.702C25.7318 33.0536 26.0168 33.3445 26.3713 33.3445" fill="#FF5A00"/>
<path d="M91.4354 33.343H95.144C95.5014 33.343 95.7879 33.0521 95.7879 32.7006L95.7924 20.2575C95.7924 16.3821 98.3666 14.5197 102.56 15.3837C103.066 15.4885 103.444 15.2242 103.437 14.6467V12.0458C103.437 11.3827 103.373 11.1198 102.885 10.9795H102.882C102.196 10.7993 100.713 10.7314 100.31 10.7343C97.6134 10.7343 95.1912 11.8199 93.5297 13.4696C92.3098 14.6881 90.7989 16.5992 90.7989 19.9296V32.702C90.7989 33.0535 91.0884 33.3445 91.4384 33.3445" fill="#FF5A00"/>
<path d="M76.5127 33.2603C78.8034 33.2515 81.0261 32.5987 82.8723 31.3492V34.0727C82.8723 37.7723 79.6363 38.4429 77.5672 38.5713C76.1789 38.6555 74.2027 38.468 73.3136 38.3336C72.7465 38.2523 72.3463 38.3483 72.3463 38.9421V42.2223C72.3359 42.4645 72.5324 42.7244 72.9326 42.7584C77.7341 43.1719 80.9715 43.0833 83.4069 41.7009C85.1393 40.7173 86.3268 39.0912 86.9515 37.1934C87.4079 35.8272 87.5644 34.148 87.5644 32.6903V21.9974C87.5644 19.5412 86.9087 17.1235 85.4392 15.109C83.3508 12.2571 80.0129 10.7462 76.5127 10.7344C73.0124 10.7462 69.676 12.2571 67.5832 15.109C64.7268 19.014 64.7239 24.9778 67.5832 28.8857C69.676 31.7376 73.0124 33.2485 76.5127 33.2618M71.1219 19.4098C71.9253 16.9891 73.8527 15.0411 76.5127 15.0411C82.4735 15.0411 82.6729 21.1215 82.6729 21.9974C82.6729 22.8732 82.4735 28.9536 76.5127 28.9536C73.8512 28.9536 71.9253 27.0056 71.1219 24.5834C70.859 23.814 70.6877 22.8702 70.6877 21.9974C70.6877 21.1245 70.859 20.1807 71.1219 19.4098Z" fill="#FF5A00"/>
<path d="M53.3486 33.2603C56.9065 33.3947 59.2873 32.7803 61.0685 31.7509C61.42 31.55 61.4953 31.3063 61.4953 30.6609V27.7839C61.4953 27.1931 61.1423 26.9258 60.5929 27.2758C58.6715 28.5002 56.3571 29.249 53.4121 29.0156C50.4465 28.7838 47.9992 26.7043 47.7644 23.7637H62.4081C62.7315 23.7637 62.9885 23.5215 63.0062 23.1685C63.2499 19.1616 62.0979 10.7388 53.0843 10.7388C46.4928 10.7388 43.6408 15.1666 42.6779 18.9061C42.4224 19.8986 42.2998 20.9694 42.2998 21.9958C42.2998 24.4195 42.9777 26.911 44.4207 28.8842C46.5105 31.7361 49.8528 33.1289 53.3486 33.2603ZM53.0843 15.0469C55.2435 15.0469 57.7794 16.2816 57.7794 19.8011H47.8072C47.8072 18.1618 49.1734 15.0469 53.0843 15.0469Z" fill="#FF5A00"/>
<path d="M5.03716 31.6963C6.45648 32.8158 8.39124 33.3445 10.7942 33.3445H12.5399L21.7071 33.343C22.0616 33.343 22.3467 33.0521 22.3467 32.7006L22.3422 26.3867L22.3378 19.7657C22.3378 16.8207 21.682 14.5596 20.2701 13.0487C18.802 11.4802 16.0107 10.7388 13.3818 10.7388C10.7528 10.7388 8.06484 11.4152 5.82879 12.7429C5.68405 12.8301 5.59691 12.9866 5.59691 13.1535V13.1816L5.7963 16.4279C5.82879 16.8665 6.34571 17.0098 6.74153 16.7616C9.97598 14.7516 13.8573 14.3809 15.8216 15.3674C17.2025 16.0645 17.5703 17.5326 17.5703 18.4823V18.9563H12.1648C9.84749 18.9563 2.73907 19.7805 2.73907 26.3483V26.4576C2.73907 28.6996 3.51003 30.5073 5.03864 31.6963M12.4542 22.9115H17.5688V29.3302H11.1147C10.261 29.2756 9.51075 29.0555 8.82694 28.5283C8.09143 27.9582 7.75321 27.2876 7.74731 26.4089C7.74731 26.4015 7.74731 26.3941 7.74731 26.3867C7.76798 25.2185 8.55518 22.9115 12.4557 22.9115" fill="#FF5A00"/>
<path d="M143.263 1.57745H141.81V33.3297H143.263V1.57745Z" fill="#FF5A00"/>
<path d="M178.393 23.1242L183.169 33.3297H180.707L176.53 24.0635H177.293L173.116 33.3297H170.652L175.429 23.1242H178.394H178.393ZM173.318 31.1793V29.3022H180.394V31.1793H173.318Z" fill="#FF5A00"/>
<path d="M194.884 23.1242H184.462V25.1653H194.884V23.1242Z" fill="#FF5A00"/>
<path d="M190.83 24.1595H188.53V33.3297H190.83V24.1595Z" fill="#FF5A00"/>
<path d="M161.02 23.1242V32.3092L159.971 31.2886H167.632V33.3297H158.706V23.1242H161.02Z" fill="#FF5A00"/>
<path d="M172.007 1.57745H161.899V4.76908H172.007V1.57745Z" fill="#FF5A00"/>
<path d="M172.007 10.3563H161.899V13.5479H172.007V10.3563Z" fill="#FF5A00"/>
<path d="M158.706 4.77054V7.96216H161.897V4.77054H158.706Z" fill="#FF5A00"/>
<path d="M158.707 13.5479V19.9326H161.899V13.5479H158.707Z" fill="#FF5A00"/>
<path d="M172.007 4.77056V10.3563H175.198V4.77056H172.007Z" fill="#FF5A00"/>
<path d="M175.198 16.741H158.706V19.9326H175.198V16.741Z" fill="#FF5A00"/>
<path d="M191.691 16.741H181.583V19.9326H191.691V16.741Z" fill="#FF5A00"/>
<path d="M191.693 7.96216H178.391V11.1538H191.693V7.96216Z" fill="#FF5A00"/>
<path d="M181.585 16.7395V13.5479H178.393V16.7395H181.585Z" fill="#FF5A00"/>
<path d="M181.585 11.1538V1.57745L178.393 1.57745V11.1538H181.585Z" fill="#FF5A00"/>
<path d="M194.884 16.7395V11.1538H191.693V16.7395H194.884Z" fill="#FF5A00"/>
<path d="M194.884 1.57745H178.391V4.76908H194.884V1.57745Z" fill="#FF5A00"/>
</svg>